<svg width="44" height="44" viewBox="0 0 44 44" fill="none" xmlns="http://www.w3.org/2000/svg">
<circle cx="22" cy="22" r="22" fill="#44454E"/>
<g clip-path="url(#clip0)">
<path d="M31.9951 30.0001V29.9993H32.0001V22.6643C32.0001 19.0759 31.2276 16.3118 27.0326 16.3118C25.0159 16.3118 23.6626 17.4184 23.1101 18.4676H23.0517V16.6468H19.0742V29.9993H23.2159V23.3876C23.2159 21.6468 23.5459 19.9634 25.7017 19.9634C27.8259 19.9634 27.8576 21.9501 27.8576 23.4993V30.0001H31.9951Z" fill="white"/>
<path d="M12.3301 16.6475H16.4767V30H12.3301V16.6475Z" fill="white"/>
<path d="M14.4017 10C13.0758 10 12 11.0758 12 12.4017C12 13.7275 13.0758 14.8258 14.4017 14.8258C15.7275 14.8258 16.8033 13.7275 16.8033 12.4017C16.8025 11.0758 15.7267 10 14.4017 10V10Z" fill="white"/>
</g>
<defs>
<clipPath id="clip0">
<rect x="12" y="10" width="20" height="20" fill="white"/>
</clipPath>
</defs>
</svg>
